<?xml version="1.0" encoding="utf-8"?>
<!-- Generator: Adobe Illustrator 27.7.0, SVG Export Plug-In . SVG Version: 6.00 Build 0)  -->
<svg version="1.1" id="Layer_1" xmlns="http://www.w3.org/2000/svg" xmlns:xlink="http://www.w3.org/1999/xlink" x="0px" y="0px"
	 viewBox="0 0 94.2 19.4" style="enable-background:new 0 0 94.2 19.4;" xml:space="preserve">
<style type="text/css">
	.st0{fill:#FFFFFF;}
</style>
<g>
	<path class="st0" d="M21.9,14c-0.4,0.2-1.2,0.3-2.1,0.3c-2.2,0-3.7-1.3-3.7-3.5c0-2,0.9-3.3,2.2-4.1C19.1,6.3,20.1,6,21.2,6
		C22,6,22.7,6.2,23,6.3L22.4,8c-0.2-0.1-0.7-0.2-1.4-0.2c-0.6,0-1.2,0.2-1.6,0.5c-0.6,0.5-1.1,1.3-1.1,2.4c0,1.2,0.8,1.9,2,1.9
		c0.6,0,1.1-0.1,1.5-0.2L21.9,14z"/>
	<path class="st0" d="M26.4,6.1l-0.6,3h2.6l0.6-3H31l-1.5,8.1h-2.1L28,11h-2.6l-0.6,3.2h-2.1l1.5-8.1H26.4z"/>
	<path class="st0" d="M36.5,11h-2.8l-0.3,1.5h3.2l-0.3,1.7H31l1.5-8.1h5.1l-0.3,1.7h-3L34,9.2h2.9L36.5,11z"/>
	<path class="st0" d="M44.2,14.2l0.5-2.9c0.1-0.9,0.3-2,0.6-3.3h0c-0.5,1.2-1,2.3-1.5,3.3l-1.3,2.8h-1.6l-0.2-2.8
		c0-0.9-0.1-2.1-0.1-3.3h0c-0.3,1.2-0.5,2.4-0.7,3.3l-0.7,2.9h-1.9l2-8.1H42l0.1,2.4c0,0.8,0.1,1.8,0.1,2.8h0c0.4-1,0.8-2.1,1.2-2.8
		l1.1-2.4h2.8l-1.1,8.1H44.2z"/>
	<path class="st0" d="M51,6.1l-1.5,8.1h-2L49,6.1H51z"/>
	<path class="st0" d="M51.5,12.1c0.5,0.3,1.2,0.5,2,0.5c0.6,0,1.1-0.2,1.1-0.7c0-0.4-0.4-0.6-1.1-1c-0.8-0.4-1.7-1-1.7-2.2
		C51.8,7,53.3,6,55.1,6c1.1,0,1.6,0.2,2,0.4l-0.6,1.7C56.3,8,55.7,7.8,55,7.8c-0.7,0-1.1,0.3-1.1,0.6c0,0.4,0.5,0.6,1.2,1
		c1,0.5,1.6,1.2,1.6,2.1c0,2-1.7,2.8-3.5,2.8c-1.3,0-2.1-0.3-2.5-0.6L51.5,12.1z"/>
	<path class="st0" d="M60,7.9h-2l0.3-1.8h6.1l-0.3,1.8h-2.1l-1.2,6.3h-2L60,7.9z"/>
	<path class="st0" d="M65.5,6.3c0.6-0.1,1.4-0.2,2.3-0.2c0.8,0,1.6,0.1,2.2,0.4c0.6,0.3,1,0.8,1,1.7c0,1.2-0.8,1.9-1.8,2.3l0,0
		c0.4,0.2,0.6,0.7,0.7,1.4c0.1,0.8,0.2,2,0.3,2.3h-2.1C68.1,14,68,13.4,68,12.3c-0.1-0.9-0.4-1.2-1-1.2h-0.4l-0.6,3h-2L65.5,6.3z
		 M66.9,9.7h0.6c0.8,0,1.4-0.5,1.4-1.2c0-0.6-0.5-0.8-1.1-0.8c-0.3,0-0.5,0-0.6,0L66.9,9.7z"/>
	<path class="st0" d="M72.6,14.2l0.6-3.3l-1.6-4.8h2.2L74.2,8c0.1,0.7,0.2,1.1,0.3,1.5h0C74.8,9,75,8.5,75.3,8l1-1.8h2.4l-3.5,4.8
		l-0.6,3.3H72.6z"/>
</g>
</svg>
