<?xml version="1.0" encoding="utf-8"?>
<!-- Generator: Adobe Illustrator 26.5.3, SVG Export Plug-In . SVG Version: 6.00 Build 0)  -->
<svg version="1.1" xmlns="http://www.w3.org/2000/svg" xmlns:xlink="http://www.w3.org/1999/xlink" x="0px" y="0px"
	 viewBox="0 0 109.6 37.7" style="enable-background:new 0 0 109.6 37.7;" xml:space="preserve">
<style type="text/css">
	.st0{fill:#313992;}
	.st1{fill:#007DC5;}
	.st2{fill:#FFFFFF;}
	.st3{font-family:'TrajanPro-Bold';}
	.st4{font-size:4.2082px;}
	.st5{font-family:'RyuminPr6N-Light-83pv-RKSJ-H';}
	.st6{font-size:12.996px;}
</style>
<g id="Layer_1">
	<polygon class="st0" points="8,0 0,4.2 27.6,4.2 19.6,0 	"/>
	<polygon class="st0" points="8,37.7 0,33.5 27.6,33.5 19.6,37.7 	"/>
	<rect x="19.6" y="4.9" class="st1" width="8" height="28.6"/>
	<rect y="4.9" class="st1" width="8" height="28.6"/>
	<g>
		<path class="st2" d="M39.1,4.3c0.1,0,0.2,0,0.3-0.1c0.1-0.1,0.2-0.2,0.3-0.2c0.1,0,0.7,0.3,0.7,0.5c0,0,0,0.1-0.1,0.1
			c-0.1,0-0.1,0.1-0.1,0.1c-0.1,0.2-0.1,0.5-0.1,0.8c0,1.3,0,2.3,0,3.3c0,0.3,0.1,1.7,0.1,1.7c0,0.6,0,0.7-0.2,0.9
			c-0.2,0.1-0.4,0.2-0.6,0.2c-0.1,0-0.2,0-0.2-0.1c-0.2-0.3-0.4-0.5-0.7-0.6c-0.1,0-0.1-0.1-0.1-0.1s0,0,0.1,0c0.1,0,0.7,0,0.9,0
			c0.2,0,0.2,0,0.3-0.1c0-0.1,0-1.4,0-1.6c0-0.3,0-4.3,0-4.4c0-0.2-0.2-0.2-0.3-0.2h-5.4c-0.2,0-0.3,0.1-0.3,0.3c0,0.7,0,3.8,0,4.3
			c0,0.3,0,1.6,0,1.9s-0.2,0.5-0.5,0.5c-0.2,0-0.2-0.2-0.2-0.3c0,0,0-0.1,0-0.2c0-1.2,0.1-3.2,0.1-4.5c0-1.1,0-1.7-0.1-2.2
			c0-0.1,0-0.3,0-0.4s0-0.1,0.1-0.1c0.2,0,0.3,0.1,0.5,0.2c0.2,0.1,0.3,0.2,0.5,0.2L39.1,4.3z M36,9.7c0.1,0,0.2,0,0.3-0.2
			c0-0.1,0-0.7,0-1.3c0-0.4,0-0.9-0.1-1.3c-0.1-0.1-0.2-0.1-0.3-0.1c-0.6,0-0.9,0-1.1,0c0,0-0.2,0-0.2,0c0,0-0.1,0-0.1-0.1l-0.2-0.2
			c0,0,0,0,0-0.1c0,0,0,0,0,0c0,0,0.3,0,0.4,0c0.4,0,0.8,0,1.2,0h1.2c0.4,0,0.5,0,0.6-0.2c0.2-0.2,0.2-0.3,0.3-0.3
			c0.2,0,0.7,0.4,0.7,0.5c0,0.1,0,0.1-0.5,0.1h-1.3c-0.1,0-0.2,0.1-0.2,0.2c0,0.1,0,1.1,0,1.2c0,0.2,0,1.1,0,1.3
			c0,0.2,0.2,0.2,0.3,0.2h0.4c0.1,0,0.3,0,0.3-0.2c0-0.3,0-1.4,0-1.5s0-0.2,0-0.3c0,0,0-0.1,0.1-0.1s0.4,0.1,0.5,0.1
			c0.2,0.1,0.3,0.1,0.3,0.2c0,0.1-0.2,0.2-0.2,0.2c0,0.2,0,0.5,0,0.7c0,0.2,0,1.1,0,1.3c0,0.2-0.2,0.4-0.4,0.4
			c-0.2,0-0.2-0.1-0.2-0.2c0-0.2,0-0.3-0.3-0.3h-1.9c-0.1,0-0.2,0-0.2,0.2c0,0.2,0,0.2,0,0.3c-0.1,0.1-0.2,0.2-0.4,0.2
			c-0.2,0-0.2-0.2-0.2-0.2c0-0.1,0-0.6,0-0.7c0-0.2,0-0.5,0-1.4c0-0.1,0-0.2,0-0.4c0-0.1,0-0.1,0-0.2c0,0,0-0.1,0.1-0.1
			s0.7,0.1,0.7,0.2c0,0-0.1,0.2-0.1,0.2c0,0.2,0,1,0,1.2s0,0.3,0.3,0.3L36,9.7z M35.6,5.2C35.8,5.4,36,5.6,36,5.9
			c0,0.2-0.1,0.4-0.3,0.4c-0.1,0-0.2-0.1-0.2-0.4c-0.1-0.3-0.2-0.6-0.4-0.9c-0.1-0.2-0.1-0.2-0.1-0.2s0-0.1,0.1,0
			C35.2,5,35.4,5.1,35.6,5.2z M38.2,5.2c0,0.1-0.3,0.2-0.3,0.2c-0.2,0.1-1,1.1-1.1,1.1c0,0,0,0,0,0l0,0c0-0.1,0.6-1.2,0.7-1.5
			s0.1-0.2,0.1-0.2S38.2,5.1,38.2,5.2L38.2,5.2z"/>
		<path class="st2" d="M42.9,10.6c-0.2,0-0.2,0.2-0.2,0.3c0,0.2,0,0.5-0.4,0.5c-0.2,0-0.3-0.1-0.3-0.3c0-0.6,0-3.4,0-3.9
			c0-0.4,0-0.8-0.1-1.1c0-0.1,0-0.2,0-0.3c0-0.1,0-0.1,0.1-0.1c0.1,0,0.9,0.2,0.9,0.3c0,0.1,0,0.1-0.2,0.2c-0.1,0.1-0.1,0.5-0.1,0.7
			c0,0.5,0,2.8,0,3.2c0,0.2,0,0.3,0.2,0.3h1.8c0.1,0,0.2,0,0.2-0.2c0-0.1,0.1-2.7,0.1-3.8c0-0.8,0-1.7,0-1.8c0-0.1-0.1-0.4-0.1-0.4
			c0-0.1,0-0.1,0.1-0.1c0.1,0,0.5,0.1,0.6,0.1c0.2,0,0.3,0.1,0.3,0.2c0,0.1-0.2,0.2-0.2,0.3c0,0.1-0.1,0.2-0.1,0.4
			c0,1.6,0,3.6,0,5.1c0,0.2,0.1,0.3,0.3,0.3h1.9c0.2,0,0.3-0.1,0.3-0.3c0-0.3,0-1.8,0-2.1c0-0.7,0-1.7,0-1.8s0-0.4,0-0.4
			c0-0.1,0-0.1,0.1-0.1s0.9,0.2,0.9,0.4c0,0-0.2,0.2-0.2,0.2c0,0.3-0.1,0.6-0.1,0.9c0,0.4,0,2.1,0,2.4c0,0.2,0,1.1,0,1.3
			c0,0.2-0.2,0.5-0.4,0.5c0,0,0,0-0.1,0c-0.2,0-0.3-0.2-0.3-0.5c0-0.1,0-0.3-0.2-0.3L42.9,10.6z"/>
		<path class="st2" d="M51.8,6.8c-0.8,0-1.1,0-1.1,0h-0.2c0,0-0.1,0-0.1-0.1l-0.2-0.2c0,0-0.1,0-0.1-0.1c0,0,0,0,0,0s0.3,0,0.4,0
			c0.4,0,0.8,0,1.2,0h1.6c0.3,0,0.3,0,0.3-1.2c0-0.4,0-0.8-0.1-1.2c0-0.1,0-0.2,0-0.3s0-0.1,0.1-0.1c0.3,0.1,0.6,0.1,0.9,0.2
			c0.1,0,0.2,0.1,0.2,0.2s0,0.1-0.2,0.2c-0.2,0.1-0.2,0.2-0.2,0.6c0,0.2-0.1,1.2-0.1,1.4c0,0.2,0.2,0.2,0.3,0.2h1.6
			c0.4,0,0.5,0,0.6-0.2c0.3-0.3,0.3-0.4,0.4-0.4c0.3,0.1,0.7,0.3,0.9,0.6c0,0.1-0.2,0.1-0.5,0.1h-2.9c-0.2,0-0.2,0-0.2,0.2
			c0,0.5,1.2,3.1,3.8,4c0.2,0.1,0.2,0.1,0.2,0.1s0,0.1-0.2,0.1c-0.3,0-0.6,0.1-0.8,0.2c-0.1,0.1-0.2,0.1-0.3,0.2
			c-0.2,0-1-0.7-1.5-1.3c-0.7-0.9-1.1-1.9-1.4-2.9c0-0.1-0.1-0.2-0.1-0.2s0,0-0.1,0.2c-0.2,1-0.5,2.8-2.9,4
			c-0.4,0.2-0.9,0.4-1.3,0.5c0,0-0.1,0-0.1,0c0,0,0.2-0.1,0.3-0.2c1.6-0.7,2.7-2,3.2-3.7c0.1-0.3,0.1-0.6,0.2-0.9
			c0-0.2-0.1-0.2-0.2-0.2L51.8,6.8z"/>
		<path class="st2" d="M65.5,6c0.3,0,0.5,0,0.6-0.2s0.1-0.2,0.2-0.2c0.2,0,0.9,0.6,0.9,0.7c0,0.1-0.1,0.2-0.2,0.2s-0.3,0-0.3,0
			c-0.3,0-0.7,0.2-1,0.4c-0.1,0.1-0.1,0.1-0.2,0.1c0,0,0,0,0,0c0-0.1,0.3-0.6,0.3-0.7s-0.1-0.1-0.2-0.1h-5.4c-0.2,0-0.2,0-0.3,0.2
			c-0.1,0.4-0.2,0.8-0.6,0.8c-0.2,0-0.3-0.2-0.3-0.3l0,0c0-0.2,0-0.2,0.3-0.6c0.2-0.2,0.2-0.4,0.3-0.7c0,0,0-0.1,0.1-0.1
			s0.2,0.2,0.2,0.4C59.9,6,60,6,60.1,6L65.5,6z M62.4,9.1c0.1,0,0.3,0,0.3-0.2c0-0.1,0-0.3,0-0.4s-0.1-0.3-0.1-0.3
			c0,0,0-0.2,0.1-0.2s0.5,0.1,0.6,0.1c0.2,0,0.9-0.7,0.9-0.7s0-0.1-0.2-0.1h-2.1c-0.2,0-0.8,0-1.1,0c0,0-0.2,0-0.2,0s0,0-0.1-0.1
			l-0.2-0.2c0,0,0,0,0-0.1c0,0,0,0,0,0c0.1,0,0.3,0,0.4,0c0.3,0,0.7,0,1.2,0h2c0.4,0,0.4,0,0.6-0.2c0.1-0.1,0.2-0.2,0.2-0.2
			c0.2,0.1,0.4,0.3,0.6,0.6c0,0.1-0.1,0.2-0.3,0.2c-0.5,0.2-1,0.4-1.5,0.7c-0.1,0.1-0.1,0.1-0.1,0.6c0,0.2,0.2,0.2,0.3,0.2h1.6
			c0.4,0,0.5,0,0.6-0.2C66,8.6,66,8.6,66.1,8.6c0.3,0.1,0.6,0.3,0.8,0.6c0,0.1-0.2,0.1-0.5,0.1h-2.9c-0.3,0-0.3,0.1-0.3,0.5
			c0,0.5,0,0.9,0,1.4c-0.1,0.4-0.4,0.5-0.7,0.5c-0.1,0-0.1-0.1-0.2-0.2c-0.1-0.2-0.3-0.3-0.7-0.5c-0.1,0-0.2-0.1-0.2-0.1
			s0.1,0,0.1,0s0.7,0.1,0.9,0.1c0.2,0,0.3,0,0.3-0.4c0-0.2,0-0.8,0-0.9s0-0.3-0.3-0.3h-1.7c-0.2,0-0.8,0-1.1,0c0,0-0.2,0-0.2,0
			s0,0-0.1-0.1l-0.2-0.2c0,0,0,0,0-0.1s0,0,0,0c0.1,0,0.3,0,0.4,0c0.3,0,0.7,0,1.2,0C60.7,9.1,62.4,9.1,62.4,9.1z M60.3,4.1
			c0.2,0,1.3,0.4,1.3,1.2c0,0.2-0.1,0.3-0.3,0.3c0,0,0,0,0,0C61,5.6,61,5.5,60.7,5C60.6,4.7,60.4,4.4,60.3,4.1
			C60.2,4.1,60.2,4.1,60.3,4.1C60.2,4.1,60.2,4.1,60.3,4.1L60.3,4.1z M63.5,5c0,0.2-0.1,0.4-0.3,0.4c-0.3,0-0.3-0.3-0.4-0.5
			c-0.1-0.3-0.2-0.7-0.3-1c0,0-0.1-0.2,0-0.2C62.5,3.7,63.5,4.3,63.5,5L63.5,5z M66,4.5c0,0.1,0,0.1-0.2,0.1c-0.2,0-0.2,0.1-0.6,0.4
			c-0.3,0.3-0.7,0.6-1,0.8c0,0,0,0,0,0s0.3-0.6,0.3-0.6c0.2-0.3,0.4-0.7,0.5-1.1c0-0.2,0-0.2,0.1-0.2c0.1,0,0.1,0,0.2,0.1
			C65.5,4.1,66,4.4,66,4.5L66,4.5z"/>
	</g>
</g>
<g id="Layer_2">
	<text transform="matrix(1 0 0 1 32.2549 29.9707)" class="st2 st3 st4">DEPARTMENT OF CHEMISTRY</text>
	<text transform="matrix(1 0 0 1 32.6118 34.958)" class="st2 st3 st4">OKAYAMA UNIVERSITY</text>
	<text transform="matrix(1 0 0 1 31.5996 23.7046)" class="st2 st5 st6">理学部化学科</text>
</g>
</svg>
